<?xml version="1.0" encoding="UTF-8" standalone="no"?>
<svg
   xmlns:svg="http://www.w3.org/2000/svg"
   xmlns="http://www.w3.org/2000/svg"
   version="1.1"
   id="svg4911"
   viewBox="0 0 606.37314 184.90382"
   height="184.90382"
   width="606.37311">
  <defs
     id="defs4913" />
  <g
     transform="translate(-56.813399,-371.3388)"
     id="layer1">
    <path
       d="m 649.12166,538.73589 -6.72695,0 9.0608,-43.64398 6.73109,0 -9.06494,43.64398 z m -13.61813,-6.11725 c -2.67496,4.11023 -6.61877,6.66871 -12.01445,6.66871 -6.73111,0 -10.06338,-4.33486 -10.06338,-10.55843 0,-4.5096 1.56003,-10.17154 4.00206,-13.89901 2.72486,-4.11855 6.78516,-6.62294 12.06854,-6.62294 6.78518,0 10.00513,4.28494 10.00513,10.56674 0,4.44718 -1.61414,10.17154 -3.9979,13.84493 m -6.51061,-20.12673 c -2.88713,0 -4.88399,2.00101 -6.2818,4.94639 -1.44358,3.06186 -2.72489,8.50748 -2.72489,11.89799 0,3.0577 1.00259,5.33746 4.1227,5.33746 2.9412,0 4.88399,-2.00103 6.22357,-4.89232 1.43939,-3.11178 2.66665,-8.67389 2.66665,-12.0644 0,-3.00361 -0.94852,-5.22512 -4.00623,-5.22512 m -23.84673,20.12673 c -2.66665,4.11023 -6.61877,6.66871 -12.0103,6.66871 -6.72695,0 -10.06753,-4.33486 -10.06753,-10.55843 0,-4.5096 1.56003,-10.17154 4.00205,-13.89901 2.72487,-4.11855 6.78102,-6.62294 12.06855,-6.62294 6.78101,0 10.00927,4.28494 10.00927,10.56674 0,4.44718 -1.60995,10.17154 -4.00204,13.84493 m -6.50645,-20.12673 c -2.89544,0 -4.89232,2.00101 -6.2818,4.94639 -1.44775,3.06186 -2.72905,8.50748 -2.72905,11.89799 0,3.0577 0.99842,5.33746 4.11853,5.33746 2.94536,0 4.89232,-2.00103 6.22357,-4.89232 1.44773,-3.11178 2.67081,-8.67389 2.67081,-12.0644 0,-3.00361 -0.94852,-5.22512 -4.00206,-5.22512 m -20.18081,5.28378 -4.33903,20.95876 -6.78518,0 4.3931,-21.1834 c 0.11238,-0.50338 0.16226,-0.99845 0.16226,-1.44357 0,-2.05926 -1.05253,-3.66924 -4.28077,-3.66924 -1.83047,0 -3.44045,0.44098 -5.10866,1.27716 l -5.17522,25.01905 -6.78102,0 9.06911,-43.64398 6.78102,0 -3.12011,14.84336 c 1.72646,-0.89026 4.44718,-1.72646 7.06391,-1.72646 5.56209,0 8.3369,2.83721 8.3369,7.17209 0,0.78211 -0.0541,1.56005 -0.21629,2.39623 m -29.86179,-3.78487 c -0.6157,-0.44512 -1.88871,-1.22308 -3.56108,-1.22308 -2.77481,0 -5.10866,1.56005 -6.77687,4.44718 -1.66821,2.83721 -2.73321,7.28439 -2.73321,10.62499 0,4.05613 1.61415,6.4482 4.56368,6.4482 1.7223,0 3.5569,-0.66561 4.50542,-1.38948 l 0.71969,4.22252 c -1.38947,1.16485 -4.05611,2.16746 -7.22613,2.16746 -5.67027,0 -9.3936,-4.50542 -9.3936,-11.34056 0,-4.45133 1.55174,-9.78461 4.05613,-13.40393 2.89129,-4.22254 7.00568,-6.33589 11.28647,-6.33589 3.22409,0 5.89073,1.22309 6.84341,2.16744 l -2.28391,3.61515 z m -25.01947,0.0577 c -0.88612,-0.77379 -2.67497,-1.38949 -4.55951,-1.38949 -2.94123,0 -5.22098,2.22567 -5.22098,4.83824 0,4.83407 9.1107,3.66923 9.1107,10.83715 0,5.67442 -4.55119,10.95363 -12.78825,10.95363 -3.16586,0 -6.27763,-0.94435 -7.89179,-2.16742 l 2.55849,-4.16846 c 0.94435,0.72387 2.8913,1.56005 5.3333,1.56005 3.39467,0 5.72851,-2.6708 5.72851,-5.39569 0,-4.89649 -8.61564,-3.61931 -8.61564,-10.78723 0,-5.05457 4.22669,-10.12162 11.28645,-10.12162 3.17003,0 5.61202,0.83618 7.39255,2.16744 l -2.33383,3.6734 z m -22.62575,9.5683 -18.84955,2.60842 c -0.44516,4.5595 0.88608,8.39514 6.3317,8.39514 3.22827,0 6.2319,-0.99843 7.90011,-1.84292 l 0.77793,4.34317 c -2.27974,1.16485 -5.89073,2.16742 -10.0592,2.16742 -7.00566,0 -11.45701,-3.83563 -11.45701,-11.11587 0,-4.44718 1.60998,-9.7264 4.11439,-13.34155 2.89544,-4.17678 7.11381,-6.62295 12.12262,-6.62295 6.11123,0 9.7888,3.56108 9.7888,10.06753 0,1.60999 -0.23298,3.39052 -0.66979,5.34161 m -9.83871,-11.29476 c -2.72904,0 -5.23346,1.72646 -6.95159,4.94641 -0.78626,1.50597 -1.44774,3.34474 -1.89703,5.50803 l 12.9006,-1.89288 c 0.27871,-1.21892 0.39105,-2.38791 0.39105,-3.38635 0,-3.507 -1.61414,-5.17521 -4.44303,-5.17521 m -24.63465,26.85618 c -1.66407,8.11644 -7.11799,12.06439 -14.73936,12.06439 -3.99789,0 -7.77947,-0.88612 -9.89281,-2.16742 l 2.61258,-4.22256 c 1.50178,0.83203 4.16429,1.55591 7.00564,1.55591 4.83409,0 7.45497,-2.8913 8.287,-6.61877 l 0.39106,-1.83879 c -1.28549,0.6157 -3.23243,1.06499 -5.62033,1.06499 -5.94486,0 -9.7264,-3.89805 -9.7264,-10.34209 0,-4.56368 1.83045,-10.22978 4.50125,-13.84493 3.05354,-4.17678 7.61305,-6.62294 13.62862,-6.62294 4.2142,0 7.66296,0.99843 9.50173,2.11752 l -5.94898,28.85469 z m -4.44719,-26.966 c -3.33643,0 -5.84082,1.88869 -7.7337,5.33745 -1.66406,3.06187 -2.88714,8.06233 -2.88714,11.56933 0,3.88975 1.67239,5.94483 5.44562,5.94483 1.56422,0 3.00364,-0.39103 4.06029,-0.94433 l 4.44304,-21.29573 c -0.60322,-0.33282 -1.60583,-0.61155 -3.32811,-0.61155 m -25.41385,20.40628 c -2.66665,4.11024 -6.61877,6.66871 -12.00616,6.66871 -6.72694,0 -10.06751,-4.33486 -10.06751,-10.55842 0,-4.50959 1.56005,-10.17154 4.00204,-13.89902 2.72905,-4.11855 6.78933,-6.62293 12.06856,-6.62293 6.78516,0 10.00928,4.28494 10.00928,10.56674 0,4.4472 -1.61413,10.17154 -4.00621,13.84492 m -6.50654,-20.1267 c -2.88713,0 -4.88816,2.00103 -6.27764,4.94641 -1.44773,3.06185 -2.7249,8.50748 -2.7249,11.89798 0,3.05771 0.99844,5.33747 4.11438,5.33747 2.94537,0 4.88816,-2.00103 6.22355,-4.89232 1.44358,-3.11178 2.67498,-8.67389 2.67498,-12.0644 0,-3.00363 -0.94852,-5.22514 -4.01037,-5.22514 m -20.17833,5.2838 -4.33903,20.95876 -6.78101,0 4.3931,-21.18341 c 0.10817,-0.50339 0.16208,-0.99844 0.16208,-1.44356 0,-2.05927 -1.0567,-3.66924 -4.27663,-3.66924 -1.83879,0 -3.44876,0.44097 -5.11697,1.27715 l -5.16689,25.01906 -6.78935,0 9.06494,-43.64398 6.78518,0 -3.11594,14.84336 c 1.72647,-0.89028 4.45133,-1.72646 7.05975,-1.72646 5.56211,0 8.34107,2.83721 8.34107,7.17207 0,0.78212 -0.0541,1.56007 -0.22041,2.39625 m 104.79849,-124.57859 4.94641,-8.27866 c 0,0 -10.22146,-8.53661 -29.06272,-8.53661 -26.79541,0 -41.63878,19.34879 -41.63878,37.5494 0,24.21614 26.92855,22.52713 26.92855,35.82292 0,6.43988 -5.48723,17.198 -24.27855,11.78983 -6.51061,-1.87206 -10.28801,1.26884 -11.76903,3.5694 -1.27715,1.98022 -7.64632,12.67176 -7.64632,12.67176 0,0 11.02851,8.56155 29.78241,8.56155 31.64616,0 46.918,-20.66755 46.918,-39.86657 0,-23.62125 -28.8131,-23.30507 -28.8131,-36.2015 0,-7.02647 6.60629,-14.71439 18.97021,-11.59845 3.27402,0.82786 9.89698,3.61517 15.66292,-5.48307 m -115.60641,92.49063 23.88749,0 c 6.40661,-32.13288 15.57556,-72.9771 15.79187,-81.44297 0.29955,-11.91879 -6.86837,-27.59419 -39.74176,-27.59419 -23.54222,0 -42.08393,8.10396 -42.08393,8.10396 l -18.42108,89.40963 c 0,0 19.93121,-8.7446 25.12723,-11.05349 7.39671,-3.29065 8.96925,-10.14241 10.74978,-18.16316 1.78055,-8.02073 9.25213,-44.12655 9.48096,-45.23314 2.94538,-0.90692 8.32025,-1.89702 13.06281,-1.89702 7.69624,0 11.80231,3.39884 11.76903,9.14397 -0.0164,2.56682 -9.95522,51.16551 -13.82831,70.54757 0,0 -2.23397,8.495 4.20591,8.17884 m -189.31819,-6.49855 c 2.97034,-5.83668 51.44423,-100.88328 51.44423,-100.88328 l -23.39245,0 c -7.58807,0 -11.65667,8.85277 -14.41485,15.11376 -2.42121,5.49555 -11.58598,24.93588 -23.52557,52.86702 0.35776,-4.89649 -1.50597,-48.40735 -1.95942,-57.95069 -0.29538,-6.11539 -5.41235,-10.03009 -14.53968,-10.03009 l -18.56669,0 11.73991,106.45371 c 0,0 21.58694,-0.0206 23.08459,0 1.49348,0.0248 7.15959,0.26625 10.12993,-5.57043 m 61.54131,-97.17993 c -8.09146,3.50283 -6.34421,14.12783 -4.99215,22.1028 l 0.0206,0.029 c 7.13048,-2.65 17.59321,-6.81014 28.43037,-6.76853 10.83299,0.0375 15.84179,3.1409 13.8782,12.47622 -1.96359,9.33536 -11.36131,54.66003 -11.59846,55.80824 -1.73061,1.27301 -24.82766,6.35668 -24.44911,-9.18143 0.37026,-15.35923 12.28904,-21.15013 19.39871,-24.25774 5.07953,-2.22151 5.45809,-14.03629 6.29013,-17.28535 -24.58639,3.37801 -50.6039,12.33896 -55.13428,37.28313 -4.53039,24.94 11.15334,34.02572 38.77662,34.1339 27.61499,0.10397 42.35018,-8.07482 42.35018,-8.07482 0,0 10.45858,-50.1421 13.0046,-62.56427 2.54599,-12.41384 1.2314,-22.41065 -4.15599,-29.03359 -5.3625,-6.58966 -14.95576,-10.33795 -27.49028,-10.33795 -19.1158,0 -31.72516,4.58447 -34.32941,5.67027 m -180.604578,1.1e-4 c -8.091461,3.50283 -6.344204,14.12782 -4.992149,22.1028 l 0.02065,0.0291 c 7.13048,-2.65 17.593207,-6.81014 28.430367,-6.76853 10.833,0.0375 15.84181,3.1409 13.87822,12.47622 -1.96359,9.33536 -11.36133,54.66003 -11.59847,55.80824 -1.73476,1.27298 -24.827665,6.35666 -24.453257,-9.18143 0.370243,-15.35923 12.293187,-21.15013 19.402847,-24.25776 5.07539,-2.22151 5.45811,-14.0363 6.28597,-17.28535 -24.582219,3.37802 -50.603879,12.33897 -55.13011,37.28313 -4.530378,24.94 11.153351,34.02574 38.77247,34.13391 27.61913,0.10397 42.35018,-8.07481 42.35018,-8.07481 0,0 10.46275,-50.14212 13.00874,-62.56429 2.546,-12.41384 1.2314,-22.41066 -4.1518,-29.03357 -5.37076,-6.58967 -14.95986,-10.33795 -27.49852,-10.33795 -19.11166,0 -31.721015,4.58446 -34.325264,5.67027"
       style="fill:#c6002a;fill-opacity:1;fill-rule:nonzero;stroke:none"
       id="path170" />
    <path
       id="path5465"
       style="fill:#c6002a;fill-opacity:1;fill-rule:nonzero;stroke:none"
       d="m 649.12166,538.73589 -6.72695,0 9.0608,-43.64398 6.73109,0 -9.06494,43.64398 z m -13.61813,-6.11725 c -2.67496,4.11023 -6.61877,6.66871 -12.01445,6.66871 -6.73111,0 -10.06338,-4.33486 -10.06338,-10.55843 0,-4.5096 1.56003,-10.17154 4.00206,-13.89901 2.72486,-4.11855 6.78516,-6.62294 12.06854,-6.62294 6.78518,0 10.00513,4.28494 10.00513,10.56674 0,4.44718 -1.61414,10.17154 -3.9979,13.84493 m -6.51061,-20.12673 c -2.88713,0 -4.88399,2.00101 -6.2818,4.94639 -1.44358,3.06186 -2.72489,8.50748 -2.72489,11.89799 0,3.0577 1.00259,5.33746 4.1227,5.33746 2.9412,0 4.88399,-2.00103 6.22357,-4.89232 1.43939,-3.11178 2.66665,-8.67389 2.66665,-12.0644 0,-3.00361 -0.94852,-5.22512 -4.00623,-5.22512 m -23.84673,20.12673 c -2.66665,4.11023 -6.61877,6.66871 -12.0103,6.66871 -6.72695,0 -10.06753,-4.33486 -10.06753,-10.55843 0,-4.5096 1.56003,-10.17154 4.00205,-13.89901 2.72487,-4.11855 6.78102,-6.62294 12.06855,-6.62294 6.78101,0 10.00927,4.28494 10.00927,10.56674 0,4.44718 -1.60995,10.17154 -4.00204,13.84493 m -6.50645,-20.12673 c -2.89544,0 -4.89232,2.00101 -6.2818,4.94639 -1.44775,3.06186 -2.72905,8.50748 -2.72905,11.89799 0,3.0577 0.99842,5.33746 4.11853,5.33746 2.94536,0 4.89232,-2.00103 6.22357,-4.89232 1.44773,-3.11178 2.67081,-8.67389 2.67081,-12.0644 0,-3.00361 -0.94852,-5.22512 -4.00206,-5.22512 m -20.18081,5.28378 -4.33903,20.95876 -6.78518,0 4.3931,-21.1834 c 0.11238,-0.50338 0.16226,-0.99845 0.16226,-1.44357 0,-2.05926 -1.05253,-3.66924 -4.28077,-3.66924 -1.83047,0 -3.44045,0.44098 -5.10866,1.27716 l -5.17522,25.01905 -6.78102,0 9.06911,-43.64398 6.78102,0 -3.12011,14.84336 c 1.72646,-0.89026 4.44718,-1.72646 7.06391,-1.72646 5.56209,0 8.3369,2.83721 8.3369,7.17209 0,0.78211 -0.0541,1.56005 -0.21629,2.39623 m -29.86179,-3.78487 c -0.6157,-0.44512 -1.88871,-1.22308 -3.56108,-1.22308 -2.77481,0 -5.10866,1.56005 -6.77687,4.44718 -1.66821,2.83721 -2.73321,7.28439 -2.73321,10.62499 0,4.05613 1.61415,6.4482 4.56368,6.4482 1.7223,0 3.5569,-0.66561 4.50542,-1.38948 l 0.71969,4.22252 c -1.38947,1.16485 -4.05611,2.16746 -7.22613,2.16746 -5.67027,0 -9.3936,-4.50542 -9.3936,-11.34056 0,-4.45133 1.55174,-9.78461 4.05613,-13.40393 2.89129,-4.22254 7.00568,-6.33589 11.28647,-6.33589 3.22409,0 5.89073,1.22309 6.84341,2.16744 l -2.28391,3.61515 z m -25.01947,0.0577 c -0.88612,-0.77379 -2.67497,-1.38949 -4.55951,-1.38949 -2.94123,0 -5.22098,2.22567 -5.22098,4.83824 0,4.83407 9.1107,3.66923 9.1107,10.83715 0,5.67442 -4.55119,10.95363 -12.78825,10.95363 -3.16586,0 -6.27763,-0.94435 -7.89179,-2.16742 l 2.55849,-4.16846 c 0.94435,0.72387 2.8913,1.56005 5.3333,1.56005 3.39467,0 5.72851,-2.6708 5.72851,-5.39569 0,-4.89649 -8.61564,-3.61931 -8.61564,-10.78723 0,-5.05457 4.22669,-10.12162 11.28645,-10.12162 3.17003,0 5.61202,0.83618 7.39255,2.16744 l -2.33383,3.6734 z m -22.62575,9.5683 -18.84955,2.60842 c -0.44516,4.5595 0.88608,8.39514 6.3317,8.39514 3.22827,0 6.2319,-0.99843 7.90011,-1.84292 l 0.77793,4.34317 c -2.27974,1.16485 -5.89073,2.16742 -10.0592,2.16742 -7.00566,0 -11.45701,-3.83563 -11.45701,-11.11587 0,-4.44718 1.60998,-9.7264 4.11439,-13.34155 2.89544,-4.17678 7.11381,-6.62295 12.12262,-6.62295 6.11123,0 9.7888,3.56108 9.7888,10.06753 0,1.60999 -0.23298,3.39052 -0.66979,5.34161 m -9.83871,-11.29476 c -2.72904,0 -5.23346,1.72646 -6.95159,4.94641 -0.78626,1.50597 -1.44774,3.34474 -1.89703,5.50803 l 12.9006,-1.89288 c 0.27871,-1.21892 0.39105,-2.38791 0.39105,-3.38635 0,-3.507 -1.61414,-5.17521 -4.44303,-5.17521 m -24.63465,26.85618 c -1.66407,8.11644 -7.11799,12.06439 -14.73936,12.06439 -3.99789,0 -7.77947,-0.88612 -9.89281,-2.16742 l 2.61258,-4.22256 c 1.50178,0.83203 4.16429,1.55591 7.00564,1.55591 4.83409,0 7.45497,-2.8913 8.287,-6.61877 l 0.39106,-1.83879 c -1.28549,0.6157 -3.23243,1.06499 -5.62033,1.06499 -5.94486,0 -9.7264,-3.89805 -9.7264,-10.34209 0,-4.56368 1.83045,-10.22978 4.50125,-13.84493 3.05354,-4.17678 7.61305,-6.62294 13.62862,-6.62294 4.2142,0 7.66296,0.99843 9.50173,2.11752 l -5.94898,28.85469 z m -4.44719,-26.966 c -3.33643,0 -5.84082,1.88869 -7.7337,5.33745 -1.66406,3.06187 -2.88714,8.06233 -2.88714,11.56933 0,3.88975 1.67239,5.94483 5.44562,5.94483 1.56422,0 3.00364,-0.39103 4.06029,-0.94433 l 4.44304,-21.29573 c -0.60322,-0.33282 -1.60583,-0.61155 -3.32811,-0.61155 m -25.41385,20.40628 c -2.66665,4.11024 -6.61877,6.66871 -12.00616,6.66871 -6.72694,0 -10.06751,-4.33486 -10.06751,-10.55842 0,-4.50959 1.56005,-10.17154 4.00204,-13.89902 2.72905,-4.11855 6.78933,-6.62293 12.06856,-6.62293 6.78516,0 10.00928,4.28494 10.00928,10.56674 0,4.4472 -1.61413,10.17154 -4.00621,13.84492 m -6.50654,-20.1267 c -2.88713,0 -4.88816,2.00103 -6.27764,4.94641 -1.44773,3.06185 -2.7249,8.50748 -2.7249,11.89798 0,3.05771 0.99844,5.33747 4.11438,5.33747 2.94537,0 4.88816,-2.00103 6.22355,-4.89232 1.44358,-3.11178 2.67498,-8.67389 2.67498,-12.0644 0,-3.00363 -0.94852,-5.22514 -4.01037,-5.22514 m -20.17833,5.2838 -4.33903,20.95876 -6.78101,0 4.3931,-21.18341 c 0.10817,-0.50339 0.16208,-0.99844 0.16208,-1.44356 0,-2.05927 -1.0567,-3.66924 -4.27663,-3.66924 -1.83879,0 -3.44876,0.44097 -5.11697,1.27715 l -5.16689,25.01906 -6.78935,0 9.06494,-43.64398 6.78518,0 -3.11594,14.84336 c 1.72647,-0.89028 4.45133,-1.72646 7.05975,-1.72646 5.56211,0 8.34107,2.83721 8.34107,7.17207 0,0.78212 -0.0541,1.56007 -0.22041,2.39625 m 104.79849,-124.57859 4.94641,-8.27866 c 0,0 -10.22146,-8.53661 -29.06272,-8.53661 -26.79541,0 -41.63878,19.34879 -41.63878,37.5494 0,24.21614 26.92855,22.52713 26.92855,35.82292 0,6.43988 -5.48723,17.198 -24.27855,11.78983 -6.51061,-1.87206 -10.28801,1.26884 -11.76903,3.5694 -1.27715,1.98022 -7.64632,12.67176 -7.64632,12.67176 0,0 11.02851,8.56155 29.78241,8.56155 31.64616,0 46.918,-20.66755 46.918,-39.86657 0,-23.62125 -28.8131,-23.30507 -28.8131,-36.2015 0,-7.02647 6.60629,-14.71439 18.97021,-11.59845 3.27402,0.82786 9.89698,3.61517 15.66292,-5.48307 m -115.60641,92.49063 23.88749,0 c 6.40661,-32.13288 15.57556,-72.9771 15.79187,-81.44297 0.29955,-11.91879 -6.86837,-27.59419 -39.74176,-27.59419 -23.54222,0 -42.08393,8.10396 -42.08393,8.10396 l -18.42108,89.40963 c 0,0 19.93121,-8.7446 25.12723,-11.05349 7.39671,-3.29065 8.96925,-10.14241 10.74978,-18.16316 1.78055,-8.02073 9.25213,-44.12655 9.48096,-45.23314 2.94538,-0.90692 8.32025,-1.89702 13.06281,-1.89702 7.69624,0 11.80231,3.39884 11.76903,9.14397 -0.0164,2.56682 -9.95522,51.16551 -13.82831,70.54757 0,0 -2.23397,8.495 4.20591,8.17884 m -189.31819,-6.49855 c 2.97034,-5.83668 51.44423,-100.88328 51.44423,-100.88328 l -23.39245,0 c -7.58807,0 -11.65667,8.85277 -14.41485,15.11376 -2.42121,5.49555 -11.58598,24.93588 -23.52557,52.86702 0.35776,-4.89649 -1.50597,-48.40735 -1.95942,-57.95069 -0.29538,-6.11539 -5.41235,-10.03009 -14.53968,-10.03009 l -18.56669,0 11.73991,106.45371 c 0,0 21.58694,-0.0206 23.08459,0 1.49348,0.0248 7.15959,0.26625 10.12993,-5.57043 m 61.54131,-97.17993 c -8.09146,3.50283 -6.34421,14.12783 -4.99215,22.1028 l 0.0206,0.029 c 7.13048,-2.65 17.59321,-6.81014 28.43037,-6.76853 10.83299,0.0375 15.84179,3.1409 13.8782,12.47622 -1.96359,9.33536 -11.36131,54.66003 -11.59846,55.80824 -1.73061,1.27301 -24.82766,6.35668 -24.44911,-9.18143 0.37026,-15.35923 12.28904,-21.15013 19.39871,-24.25774 5.07953,-2.22151 5.45809,-14.03629 6.29013,-17.28535 -24.58639,3.37801 -50.6039,12.33896 -55.13428,37.28313 -4.53039,24.94 11.15334,34.02572 38.77662,34.1339 27.61499,0.10397 42.35018,-8.07482 42.35018,-8.07482 0,0 10.45858,-50.1421 13.0046,-62.56427 2.54599,-12.41384 1.2314,-22.41065 -4.15599,-29.03359 -5.3625,-6.58966 -14.95576,-10.33795 -27.49028,-10.33795 -19.1158,0 -31.72516,4.58447 -34.32941,5.67027 m -180.604578,1.1e-4 c -8.091461,3.50283 -6.344204,14.12782 -4.992149,22.1028 l 0.02065,0.0291 c 7.13048,-2.65 17.593207,-6.81014 28.430367,-6.76853 10.833,0.0375 15.84181,3.1409 13.87822,12.47622 -1.96359,9.33536 -11.36133,54.66003 -11.59847,55.80824 -1.73476,1.27298 -24.827665,6.35666 -24.453257,-9.18143 0.370243,-15.35923 12.293187,-21.15013 19.402847,-24.25776 5.07539,-2.22151 5.45811,-14.0363 6.28597,-17.28535 -24.582219,3.37802 -50.603879,12.33897 -55.13011,37.28313 -4.530378,24.94 11.153351,34.02574 38.77247,34.13391 27.61913,0.10397 42.35018,-8.07481 42.35018,-8.07481 0,0 10.46275,-50.14212 13.00874,-62.56429 2.546,-12.41384 1.2314,-22.41066 -4.1518,-29.03357 -5.37076,-6.58967 -14.95986,-10.33795 -27.49852,-10.33795 -19.11166,0 -31.721015,4.58446 -34.325264,5.67027" />
  </g>
</svg>
